<svg xmlns="http://www.w3.org/2000/svg" viewBox="0 0 256 256" role="img" aria-labelledby="title desc">
  <title id="title">一色イズ 歌唱データベース Icon</title>
  <desc id="desc">A navy, cyan, pink, and yellow star-themed song database icon.</desc>
  <defs>
    <linearGradient id="bg" x1="22" y1="24" x2="226" y2="230" gradientUnits="userSpaceOnUse">
      <stop offset="0" stop-color="#173957"/>
      <stop offset="1" stop-color="#102b45"/>
    </linearGradient>
    <linearGradient id="ring" x1="44" y1="72" x2="214" y2="182" gradientUnits="userSpaceOnUse">
      <stop offset="0" stop-color="#ff72b6"/>
      <stop offset=".45" stop-color="#18dcd6"/>
      <stop offset=".72" stop-color="#ffe575"/>
      <stop offset="1" stop-color="#ff72b6"/>
    </linearGradient>
    <filter id="shadow" x="-20%" y="-20%" width="140%" height="140%" color-interpolation-filters="sRGB">
      <feDropShadow dx="0" dy="10" stdDeviation="9" flood-color="#071727" flood-opacity=".36"/>
    </filter>
  </defs>
  <rect width="256" height="256" rx="54" fill="url(#bg)"/>
  <ellipse cx="128" cy="132" rx="86" ry="34" fill="none" stroke="url(#ring)" stroke-width="15" transform="rotate(-18 128 132)" filter="url(#shadow)"/>
  <path d="M128 48l18 53 56 1-45 33 16 54-45-32-46 32 17-54-45-33 56-1 18-53Z" fill="#fff6a8" filter="url(#shadow)"/>
  <path d="M128 73l10 31 33 1-27 19 10 32-26-19-27 19 10-32-27-19 33-1 11-31Z" fill="#18dcd6"/>
  <g fill="#ff72b6">
    <path d="M52 62h14v14H52zM66 76h14v14H66zM38 76h14v14H38z"/>
    <path d="M188 170h14v14h-14zM202 184h14v14h-14zM174 184h14v14h-14z"/>
  </g>
  <g fill="#18dcd6">
    <path d="M186 48h14v14h-14zM200 62h14v14h-14z"/>
    <path d="M56 180h14v14H56zM70 194h14v14H70z"/>
  </g>
  <g fill="#fff6a8">
    <path d="M212 100h12v12h-12zM224 112h12v12h-12zM200 112h12v12h-12z"/>
    <circle cx="48" cy="130" r="5"/>
    <circle cx="209" cy="40" r="5"/>
  </g>
</svg>
